{
	"asset":{
		"generator":"Khronos glTF Blender I/O v4.2.60",
		"version":"2.0"
	},
	"scene":0,
	"scenes":[
		{
			"name":"Scene",
			"nodes":[
				2
			]
		}
	],
	"nodes":[
		{
			"mesh":0,
			"name":"Object_2"
		},
		{
			"children":[
				0
			],
			"name":"d9df90e67e504ce6baf250c21370b886.obj.cleaner.materialmerger.gle",
			"rotation":[
				-0.70710688829422,
				0,
				0,
				0.7071066498756409
			]
		},
		{
			"children":[
				1
			],
			"name":"Sketchfab_model",
			"translation":[
				0,
				-1.100000023841858,
				0
			]
		}
	],
	"materials":[
		{
			"doubleSided":true,
			"name":"None",
			"pbrMetallicRoughness":{
				"metallicFactor":0,
				"roughnessFactor":0.6000000238418579
			}
		}
	],
	"meshes":[
		{
			"name":"Object_0",
			"primitives":[
				{
					"attributes":{
						"POSITION":0,
						"NORMAL":1,
						"TEXCOORD_0":2
					},
					"indices":3,
					"material":0
				}
			]
		}
	],
	"accessors":[
		{
			"bufferView":0,
			"componentType":5126,
			"count":20402,
			"max":[
				1.1156569719314575,
				1.1156569719314575,
				2.203205108642578
			],
			"min":[
				-1.1156569719314575,
				-1.1156569719314575,
				-0.02810800075531006
			],
			"type":"VEC3"
		},
		{
			"bufferView":1,
			"componentType":5126,
			"count":20402,
			"type":"VEC3"
		},
		{
			"bufferView":2,
			"componentType":5126,
			"count":20402,
			"type":"VEC2"
		},
		{
			"bufferView":3,
			"componentType":5123,
			"count":23808,
			"type":"SCALAR"
		}
	],
	"bufferViews":[
		{
			"buffer":0,
			"byteLength":244824,
			"byteOffset":0,
			"target":34962
		},
		{
			"buffer":0,
			"byteLength":244824,
			"byteOffset":244824,
			"target":34962
		},
		{
			"buffer":0,
			"byteLength":163216,
			"byteOffset":489648,
			"target":34962
		},
		{
			"buffer":0,
			"byteLength":47616,
			"byteOffset":652864,
			"target":34963
		}
	],
	"buffers":[
		{
			"byteLength":700480,
			"uri":"Sphere.bin"
		}
	]
}
